<svg xmlns="http://www.w3.org/2000/svg" viewBox="0 0 300 450" width="100%" height="100%">
    <defs>
        <linearGradient id="grad-12" x1="0%" y1="0%" x2="100%" y2="100%">
            <stop offset="0%" style="stop-color:#020b14;stop-opacity:1" />
            <stop offset="100%" style="stop-color:#112240;stop-opacity:1" />
        </linearGradient>
        
        <!-- 3D Cylindrical Spine Shading overlay -->
        <linearGradient id="spine-shading" x1="0" y1="0" x2="1" y2="0">
            <stop offset="0%" stop-color="#000000" stop-opacity="0.6"/>
            <stop offset="2%" stop-color="#000000" stop-opacity="0.35"/>
            <stop offset="6%" stop-color="#ffffff" stop-opacity="0.12"/>
            <stop offset="10%" stop-color="#ffffff" stop-opacity="0.0"/>
            <stop offset="90%" stop-color="#000000" stop-opacity="0.0"/>
            <stop offset="97%" stop-color="#000000" stop-opacity="0.25"/>
            <stop offset="100%" stop-color="#000000" stop-opacity="0.55"/>
        </linearGradient>
        
        <!-- Tactile Paper Texture Filter -->
        <filter id="paper-texture" x="0%" y="0%" width="100%" height="100%">
            <feTurbulence type="fractalNoise" baseFrequency="0.05" numOctaves="4" result="noise" />
            <feColorMatrix type="matrix" values="1 0 0 0 0  0 1 0 0 0  0 0 1 0 0  0 0 0 0.08 0" in="noise" result="coloredNoise" />
            <feComposite operator="in" in2="SourceGraphic" result="composite" />
            <feBlend mode="multiply" in="SourceGraphic" in2="coloredNoise" />
        </filter>
    </defs>
    
    <!-- Render everything inside a group that has the paper-texture filter applied -->
    <g filter="url(#paper-texture)">
        <!-- Cover Background -->
        <rect width="300" height="450" fill="url(#grad-12)" />
        
        <!-- Realistic spine shadow & highlights -->
        <rect width="300" height="450" fill="url(#spine-shading)" />
        
        <!-- Vertical Book Joint line (Indentation fold) -->
        <line x1="20" y1="0" x2="20" y2="450" stroke="rgba(0,0,0,0.4)" stroke-width="1.5" />
        <line x1="21" y1="0" x2="21" y2="450" stroke="rgba(255,255,255,0.06)" stroke-width="1" />
        
        <!-- Spine 3D block highlights -->
        <rect x="0" y="0" width="20" height="450" fill="rgba(255,255,255,0.03)" />
        <line x1="0" y1="0" x2="0" y2="450" stroke="rgba(255,255,255,0.1)" stroke-width="1" />
        
        <!-- Graphic Illustration Art -->
        
        <!-- Grid pattern background -->
        <g opacity="0.12">
            <line x1="30" y1="120" x2="270" y2="120" stroke="#ffffff" stroke-width="0.5"/>
            <line x1="30" y1="160" x2="270" y2="160" stroke="#ffffff" stroke-width="0.5"/>
            <line x1="30" y1="200" x2="270" y2="200" stroke="#ffffff" stroke-width="0.5"/>
            <line x1="30" y1="240" x2="270" y2="240" stroke="#ffffff" stroke-width="0.5"/>
            <line x1="30" y1="280" x2="270" y2="280" stroke="#ffffff" stroke-width="0.5"/>
            <line x1="30" y1="320" x2="270" y2="320" stroke="#ffffff" stroke-width="0.5"/>
            <line x1="70" y1="80" x2="70" y2="360" stroke="#ffffff" stroke-width="0.5"/>
            <line x1="110" y1="80" x2="110" y2="360" stroke="#ffffff" stroke-width="0.5"/>
            <line x1="150" y1="80" x2="150" y2="360" stroke="#ffffff" stroke-width="0.5"/>
            <line x1="190" y1="80" x2="190" y2="360" stroke="#ffffff" stroke-width="0.5"/>
            <line x1="230" y1="80" x2="230" y2="360" stroke="#ffffff" stroke-width="0.5"/>
        </g>
        <!-- Orbital Rings -->
        <circle cx="150" cy="210" r="95" fill="none" stroke="#64ffda" stroke-width="0.75" opacity="0.3" stroke-dasharray="3,6"/>
        <circle cx="150" cy="210" r="75" fill="none" stroke="#64ffda" stroke-width="1.25" opacity="0.4"/>
        <circle cx="150" cy="210" r="50" fill="none" stroke="#ffffff" stroke-width="0.5" opacity="0.2"/>
        <!-- Ringed Planet -->
        <g transform="translate(150, 210) rotate(-15)">
            <!-- Back ring -->
            <path d="M -90 0 A 90 22 0 0 1 90 0" fill="none" stroke="url(#planet-ring-grad)" stroke-width="8" opacity="0.75" />
            <!-- Planet Sphere -->
            <circle cx="0" cy="0" r="38" fill="url(#planet-body-grad)" filter="url(#glow-filter)"/>
            <!-- Front ring overlay -->
            <path d="M 90 0 A 90 22 0 0 1 -90 0" fill="none" stroke="url(#planet-ring-grad)" stroke-width="8" />
        </g>
        <path d="M 70 84 Q 70 90 76 90 Q 70 90 70 96 Q 70 90 64 90 Z" fill="#64ffda" opacity="0.8"/>
<path d="M 220 106 Q 220 110 224 110 Q 220 110 220 114 Q 220 110 216 110 Z" fill="#64ffda" opacity="0.8"/>
<path d="M 90 304 Q 90 310 96 310 Q 90 310 90 316 Q 90 310 84 310 Z" fill="#64ffda" opacity="0.8"/>
<path d="M 230 286 Q 230 290 234 290 Q 230 290 230 294 Q 230 290 226 290 Z" fill="#64ffda" opacity="0.8"/>
<path d="M 60 194 Q 60 200 66 200 Q 60 200 60 206 Q 60 200 54 200 Z" fill="#64ffda" opacity="0.8"/>
<path d="M 240 176 Q 240 180 244 180 Q 240 180 240 184 Q 240 180 236 180 Z" fill="#64ffda" opacity="0.8"/>

        <defs>
            <radialGradient id="planet-body-grad" cx="30%" cy="30%" r="70%">
                <stop offset="0%" stop-color="#64ffda" />
                <stop offset="60%" stop-color="#112240" />
                <stop offset="100%" stop-color="#000000" />
            </radialGradient>
            <linearGradient id="planet-ring-grad" x1="0" y1="0" x2="1" y2="0">
                <stop offset="0%" stop-color="rgba(0,0,0,0)" />
                <stop offset="25%" stop-color="#64ffda" stop-opacity="0.8" />
                <stop offset="50%" stop-color="#ffffff" />
                <stop offset="75%" stop-color="#64ffda" stop-opacity="0.8" />
                <stop offset="100%" stop-color="rgba(0,0,0,0)" />
            </linearGradient>
            <filter id="glow-filter" x="-20%" y="-20%" width="140%" height="140%">
                <feGaussianBlur stdDeviation="3" result="blur"/>
                <feMerge>
                    <feMergeNode in="blur"/>
                    <feMergeNode in="SourceGraphic"/>
                </feMerge>
            </filter>
        </defs>
        
        
        <!-- Inner Decorative Border Frame -->
        <rect x="15" y="15" width="270" height="420" rx="6" fill="none" stroke="rgba(255,255,255,0.08)" stroke-width="1.5" />
        
        <!-- Dynamic Text Backing Shield -->
        
    <!-- Title Backing Glass Shield -->
    <rect x="35" y="191.0" width="230" height="71" rx="10" fill="rgba(0,0,0,0.45)" stroke="rgba(255,255,255,0.08)" stroke-width="1.25" backdrop-filter="blur(5px)" />
    
        
        <!-- Category (Top Header) -->
        <text x="150" y="52" fill="rgba(255,255,255,0.45)" font-family="system-ui, -apple-system, sans-serif" font-size="8.5" font-weight="800" letter-spacing="3" text-anchor="middle">BILIM KURGU</text>
        
        <!-- Title Block -->
        <text x="150" y="211.0" text-anchor="middle" fill="#ffffff" font-family="system-ui, -apple-system, sans-serif" font-size="20px" font-weight="900" letter-spacing="-0.5px" text-transform="uppercase">
            <tspan x="150" dy="0">Karanlık Madde</tspan><tspan x="150" dy="28px">Kuşağı</tspan>
        </text>
        
        <!-- Brand / Publisher Logo Imprint -->
        <g transform="translate(150, 360)">
            <circle cx="0" cy="0" r="9" fill="none" stroke="rgba(255,255,255,0.25)" stroke-width="1.25"/>
            <text x="0" y="3" fill="rgba(255,255,255,0.4)" font-family="system-ui, -apple-system, sans-serif" font-size="9" font-weight="900" text-anchor="middle">T</text>
        </g>
        
        <!-- Author Name (Bottom) -->
        <text x="150" y="398" fill="rgba(255,255,255,0.75)" font-family="system-ui, -apple-system, sans-serif" font-size="11.5" font-weight="600" letter-spacing="0.5" text-anchor="middle">Selin Tok</text>
    </g>
</svg>