<svg xmlns="http://www.w3.org/2000/svg" viewBox="0 0 300 450" width="100%" height="100%">
  <defs>
    <linearGradient id="grad-cover_kids_27.svg" x1="0%" y1="0%" x2="100%" y2="100%">
      <stop offset="0%" style="stop-color:#e0c3fc;stop-opacity:1" />
      <stop offset="100%" style="stop-color:#8ec5fc;stop-opacity:1" />
    </linearGradient>
    
    <!-- 3D Spine Shading overlay -->
    <linearGradient id="spine-shading" x1="0" y1="0" x2="1" y2="0">
      <stop offset="0%" stop-color="#000000" stop-opacity="0.55"/>
      <stop offset="2%" stop-color="#000000" stop-opacity="0.30"/>
      <stop offset="6%" stop-color="#ffffff" stop-opacity="0.10"/>
      <stop offset="10%" stop-color="#ffffff" stop-opacity="0.0"/>
      <stop offset="90%" stop-color="#000000" stop-opacity="0.0"/>
      <stop offset="97%" stop-color="#000000" stop-opacity="0.20"/>
      <stop offset="100%" stop-color="#000000" stop-opacity="0.50"/>
    </linearGradient>
    
    <!-- Tactile Paper Texture Filter -->
    <filter id="paper-texture" x="0%" y="0%" width="100%" height="100%">
      <feTurbulence type="fractalNoise" baseFrequency="0.06" numOctaves="3" result="noise" />
      <feColorMatrix type="matrix" values="1 0 0 0 0  0 1 0 0 0  0 0 1 0 0  0 0 0 0.06 0" in="noise" result="coloredNoise" />
      <feBlend mode="multiply" in="SourceGraphic" in2="coloredNoise" />
    </filter>

    <filter id="shadow" x="-10%" y="-10%" width="120%" height="120%">
      <feDropShadow dx="2" dy="4" stdDeviation="3" flood-opacity="0.15"/>
    </filter>

    <filter id="glow" x="-20%" y="-20%" width="140%" height="140%">
      <feGaussianBlur stdDeviation="4" result="blur"/>
      <feMerge>
        <feMergeNode in="blur"/>
        <feMergeNode in="SourceGraphic"/>
      </feMerge>
    </filter>
  </defs>
  
  <g filter="url(#paper-texture)">
    <!-- Cover Background -->
    <rect width="300" height="450" fill="url(#grad-cover_kids_27.svg)" />
    
    <!-- 3D Spine shading -->
    <rect width="300" height="450" fill="url(#spine-shading)" />
    
    <!-- Vertical Book Joint line -->
    <line x1="20" y1="0" x2="20" y2="450" stroke="rgba(0,0,0,0.3)" stroke-width="1.2" />
    <line x1="21" y1="0" x2="21" y2="450" stroke="rgba(255,255,255,0.08)" stroke-width="1" />
    <rect x="0" y="0" width="20" height="450" fill="rgba(255,255,255,0.02)" />

    <!-- Cute Graphics -->
    
      <!-- Two cute clouds side by side -->
      <g transform="translate(150, 220)">
        <!-- Big cloud -->
        <g transform="translate(-25, -10)" filter="url(#shadow)">
          <path d="M-30,10 A15,15 0 0,1 -10,0 A25,25 0 0,1 25,0 A15,15 0 0,1 40,15 A15,15 0 0,1 25,30 L-25,30 Z" fill="#ffffff"/>
          <circle cx="-5" cy="15" r="2.5" fill="#1e293b"/>
          <circle cx="15" cy="15" r="2.5" fill="#1e293b"/>
          <path d="M2,19 Q5,21 8,19" fill="none" stroke="#1e293b" stroke-width="1.5"/>
        </g>
        <!-- Little cloud -->
        <g transform="translate(30, 10)" filter="url(#shadow)">
          <path d="M-20,7 A10,10 0 0,1 -7,0 A18,18 0 0,1 18,0 A10,10 0 0,1 28,10 L-18,10 Z" fill="#ffffff" opacity="0.95"/>
          <circle cx="-2" cy="3" r="1.8" fill="#1e293b"/>
          <circle cx="10" cy="3" r="1.8" fill="#1e293b"/>
          <path d="M2,6 Q4,7.5 6,6" fill="none" stroke="#1e293b" stroke-width="1"/>
        </g>
      </g>
    

    <!-- Frame -->
    <rect x="15" y="15" width="270" height="420" rx="12" fill="none" stroke="rgba(255,255,255,0.3)" stroke-width="2" />
    <rect x="18" y="18" width="264" height="414" rx="10" fill="none" stroke="rgba(0,0,0,0.05)" stroke-width="1" />

    <!-- Category (Top Header) -->
    <text x="150" y="52" fill="rgba(30,41,59,0.6)" font-family="system-ui, -apple-system, sans-serif" font-size="9.5" font-weight="800" letter-spacing="4" text-anchor="middle">ÇOCUK KİTABI</text>

    <!-- Title Backing Plate -->
    <rect x="35" y="82" width="230" height="60" rx="8" fill="rgba(255,255,255,0.8)" filter="url(#shadow)"/>

    <!-- Title -->
    <text x="150" y="108" text-anchor="middle" fill="#1e293b" font-family="system-ui, -apple-system, sans-serif" font-size="17" font-weight="900" letter-spacing="-0.3">
      <tspan x="150" dy="0">Bulut Kardeşler</tspan>
      
    </text>

    <!-- Author (Bottom) -->
    <text x="150" y="405" fill="#1e293b" font-family="system-ui, -apple-system, sans-serif" font-size="11" font-weight="700" letter-spacing="0.5" text-anchor="middle">KEREM DEREN</text>
  </g>
</svg>