<svg xmlns="http://www.w3.org/2000/svg" viewBox="0 0 300 450" width="100%" height="100%">
    <defs>
        <linearGradient id="grad-44" x1="0%" y1="0%" x2="100%" y2="100%">
            <stop offset="0%" style="stop-color:#0f0714;stop-opacity:1" />
            <stop offset="100%" style="stop-color:#251230;stop-opacity:1" />
        </linearGradient>
        
        <!-- 3D Cylindrical Spine Shading overlay -->
        <linearGradient id="spine-shading" x1="0" y1="0" x2="1" y2="0">
            <stop offset="0%" stop-color="#000000" stop-opacity="0.6"/>
            <stop offset="2%" stop-color="#000000" stop-opacity="0.35"/>
            <stop offset="6%" stop-color="#ffffff" stop-opacity="0.12"/>
            <stop offset="10%" stop-color="#ffffff" stop-opacity="0.0"/>
            <stop offset="90%" stop-color="#000000" stop-opacity="0.0"/>
            <stop offset="97%" stop-color="#000000" stop-opacity="0.25"/>
            <stop offset="100%" stop-color="#000000" stop-opacity="0.55"/>
        </linearGradient>
        
        <!-- Tactile Paper Texture Filter -->
        <filter id="paper-texture" x="0%" y="0%" width="100%" height="100%">
            <feTurbulence type="fractalNoise" baseFrequency="0.05" numOctaves="4" result="noise" />
            <feColorMatrix type="matrix" values="1 0 0 0 0  0 1 0 0 0  0 0 1 0 0  0 0 0 0.08 0" in="noise" result="coloredNoise" />
            <feComposite operator="in" in2="SourceGraphic" result="composite" />
            <feBlend mode="multiply" in="SourceGraphic" in2="coloredNoise" />
        </filter>
    </defs>
    
    <!-- Render everything inside a group that has the paper-texture filter applied -->
    <g filter="url(#paper-texture)">
        <!-- Cover Background -->
        <rect width="300" height="450" fill="url(#grad-44)" />
        
        <!-- Realistic spine shadow & highlights -->
        <rect width="300" height="450" fill="url(#spine-shading)" />
        
        <!-- Vertical Book Joint line (Indentation fold) -->
        <line x1="20" y1="0" x2="20" y2="450" stroke="rgba(0,0,0,0.4)" stroke-width="1.5" />
        <line x1="21" y1="0" x2="21" y2="450" stroke="rgba(255,255,255,0.06)" stroke-width="1" />
        
        <!-- Spine 3D block highlights -->
        <rect x="0" y="0" width="20" height="450" fill="rgba(255,255,255,0.03)" />
        <line x1="0" y1="0" x2="0" y2="450" stroke="rgba(255,255,255,0.1)" stroke-width="1" />
        
        <!-- Graphic Illustration Art -->
        
        <!-- Labyrinth meshes -->
        <g stroke="#a855f7" stroke-width="0.5" opacity="0.12" fill="none">
            <circle cx="150" cy="225" r="130"/>
            <circle cx="150" cy="225" r="110"/>
            <circle cx="150" cy="225" r="90"/>
            <circle cx="150" cy="225" r="70"/>
            <circle cx="150" cy="225" r="50"/>
            <circle cx="150" cy="225" r="30"/>
            <line x1="150" y1="30" x2="150" y2="420" stroke-width="0.75"/>
            <line x1="30" y1="225" x2="270" y2="225" stroke-width="0.75"/>
            <!-- Diagonals -->
            <line x1="50" y1="125" x2="250" y2="325" />
            <line x1="250" y1="125" x2="50" y2="325" />
        </g>
        
        <!-- Noir diagonal slash -->
        <path d="M -10 270 L 310 170 L 310 195 L -10 295 Z" fill="#0f0714" opacity="0.75" />
        <path d="M -10 270 L 310 170" stroke="#a855f7" stroke-width="2" opacity="0.9" />
        <path d="M -10 295 L 310 195" stroke="#a855f7" stroke-width="1" opacity="0.5" />
        
        <!-- Target Sights Reticle (Precision crosshair) -->
        <g stroke="#a855f7" fill="none" stroke-width="1" opacity="0.75">
            <!-- Inner ring -->
            <circle cx="150" cy="225" r="42"/>
            <circle cx="150" cy="225" r="45" stroke-dasharray="3,3"/>
            <!-- Center dot -->
            <circle cx="150" cy="225" r="2" fill="#a855f7"/>
            <!-- Tick marks -->
            <line x1="150" y1="170" x2="150" y2="180" stroke-width="1.5"/>
            <line x1="150" y1="270" x2="150" y2="280" stroke-width="1.5"/>
            <line x1="95" y1="225" x2="105" y2="225" stroke-width="1.5"/>
            <line x1="195" y1="225" x2="205" y2="225" stroke-width="1.5"/>
            <!-- Outermost cropped corners -->
            <path d="M 80 160 L 80 150 L 95 150" />
            <path d="M 220 160 L 220 150 L 205 150" />
            <path d="M 80 290 L 80 300 L 95 300" />
            <path d="M 220 290 L 220 300 L 205 300" />
        </g>
        
        
        <!-- Inner Decorative Border Frame -->
        <rect x="15" y="15" width="270" height="420" rx="6" fill="none" stroke="rgba(255,255,255,0.08)" stroke-width="1.5" />
        
        <!-- Dynamic Text Backing Shield -->
        
    <!-- Title Backing Glass Shield -->
    <rect x="35" y="191.0" width="230" height="71" rx="10" fill="rgba(0,0,0,0.45)" stroke="rgba(255,255,255,0.08)" stroke-width="1.25" backdrop-filter="blur(5px)" />
    
        
        <!-- Category (Top Header) -->
        <text x="150" y="52" fill="rgba(255,255,255,0.45)" font-family="system-ui, -apple-system, sans-serif" font-size="8.5" font-weight="800" letter-spacing="3" text-anchor="middle">GIZEM & GERILIM</text>
        
        <!-- Title Block -->
        <text x="150" y="211.0" text-anchor="middle" fill="#ffffff" font-family="system-ui, -apple-system, sans-serif" font-size="20px" font-weight="900" letter-spacing="-0.5px" text-transform="uppercase">
            <tspan x="150" dy="0">Karanlık</tspan><tspan x="150" dy="28px">Labirent</tspan>
        </text>
        
        <!-- Brand / Publisher Logo Imprint -->
        <g transform="translate(150, 360)">
            <circle cx="0" cy="0" r="9" fill="none" stroke="rgba(255,255,255,0.25)" stroke-width="1.25"/>
            <text x="0" y="3" fill="rgba(255,255,255,0.4)" font-family="system-ui, -apple-system, sans-serif" font-size="9" font-weight="900" text-anchor="middle">T</text>
        </g>
        
        <!-- Author Name (Bottom) -->
        <text x="150" y="398" fill="rgba(255,255,255,0.75)" font-family="system-ui, -apple-system, sans-serif" font-size="11.5" font-weight="600" letter-spacing="0.5" text-anchor="middle">Ellen Blackwood</text>
    </g>
</svg>