<svg xmlns="http://www.w3.org/2000/svg" viewBox="0 0 300 450" width="100%" height="100%">
    <defs>
        <linearGradient id="grad-27" x1="0%" y1="0%" x2="100%" y2="100%">
            <stop offset="0%" style="stop-color:#010d18;stop-opacity:1" />
            <stop offset="100%" style="stop-color:#05223c;stop-opacity:1" />
        </linearGradient>
    </defs>
    
    <!-- Spine Shadow & Background -->
    <rect width="300" height="450" fill="url(#grad-27)" />
    
    <!-- Spine 3D effect -->
    <rect x="0" y="0" width="18" height="450" fill="rgba(0,0,0,0.15)" />
    <line x1="18" y1="0" x2="18" y2="450" stroke="rgba(255,255,255,0.07)" stroke-width="1" />
    <line x1="0" y1="0" x2="0" y2="450" stroke="rgba(255,255,255,0.12)" stroke-width="1" />
    
    <!-- Geometric Graphic Art -->
    
        <!-- Dot matrix -->
        <circle cx="80" cy="160" r="1.5" fill="#38bdf8" opacity="0.15" />
<circle cx="80" cy="180" r="1.5" fill="#38bdf8" opacity="0.15" />
<circle cx="80" cy="200" r="1.5" fill="#38bdf8" opacity="0.15" />
<circle cx="80" cy="220" r="1.5" fill="#38bdf8" opacity="0.15" />
<circle cx="80" cy="240" r="1.5" fill="#38bdf8" opacity="0.15" />
<circle cx="80" cy="260" r="1.5" fill="#38bdf8" opacity="0.15" />
<circle cx="80" cy="280" r="1.5" fill="#38bdf8" opacity="0.15" />
<circle cx="80" cy="300" r="1.5" fill="#38bdf8" opacity="0.15" />
<circle cx="100" cy="160" r="1.5" fill="#38bdf8" opacity="0.15" />
<circle cx="100" cy="180" r="1.5" fill="#38bdf8" opacity="0.15" />
<circle cx="100" cy="200" r="1.5" fill="#38bdf8" opacity="0.15" />
<circle cx="100" cy="220" r="1.5" fill="#38bdf8" opacity="0.15" />
<circle cx="100" cy="240" r="1.5" fill="#38bdf8" opacity="0.15" />
<circle cx="100" cy="260" r="1.5" fill="#38bdf8" opacity="0.15" />
<circle cx="100" cy="280" r="1.5" fill="#38bdf8" opacity="0.15" />
<circle cx="100" cy="300" r="1.5" fill="#38bdf8" opacity="0.15" />
<circle cx="120" cy="160" r="1.5" fill="#38bdf8" opacity="0.15" />
<circle cx="120" cy="180" r="1.5" fill="#38bdf8" opacity="0.15" />
<circle cx="120" cy="200" r="1.5" fill="#38bdf8" opacity="0.15" />
<circle cx="120" cy="220" r="1.5" fill="#38bdf8" opacity="0.15" />
<circle cx="120" cy="240" r="1.5" fill="#38bdf8" opacity="0.15" />
<circle cx="120" cy="260" r="1.5" fill="#38bdf8" opacity="0.15" />
<circle cx="120" cy="280" r="1.5" fill="#38bdf8" opacity="0.15" />
<circle cx="120" cy="300" r="1.5" fill="#38bdf8" opacity="0.15" />
<circle cx="140" cy="160" r="1.5" fill="#38bdf8" opacity="0.15" />
<circle cx="140" cy="180" r="1.5" fill="#38bdf8" opacity="0.15" />
<circle cx="140" cy="200" r="1.5" fill="#38bdf8" opacity="0.15" />
<circle cx="140" cy="220" r="1.5" fill="#38bdf8" opacity="0.15" />
<circle cx="140" cy="240" r="1.5" fill="#38bdf8" opacity="0.15" />
<circle cx="140" cy="260" r="1.5" fill="#38bdf8" opacity="0.15" />
<circle cx="140" cy="280" r="1.5" fill="#38bdf8" opacity="0.15" />
<circle cx="140" cy="300" r="1.5" fill="#38bdf8" opacity="0.15" />
<circle cx="160" cy="160" r="1.5" fill="#38bdf8" opacity="0.15" />
<circle cx="160" cy="180" r="1.5" fill="#38bdf8" opacity="0.15" />
<circle cx="160" cy="200" r="1.5" fill="#38bdf8" opacity="0.15" />
<circle cx="160" cy="220" r="1.5" fill="#38bdf8" opacity="0.15" />
<circle cx="160" cy="240" r="1.5" fill="#38bdf8" opacity="0.15" />
<circle cx="160" cy="260" r="1.5" fill="#38bdf8" opacity="0.15" />
<circle cx="160" cy="280" r="1.5" fill="#38bdf8" opacity="0.15" />
<circle cx="160" cy="300" r="1.5" fill="#38bdf8" opacity="0.15" />
<circle cx="180" cy="160" r="1.5" fill="#38bdf8" opacity="0.15" />
<circle cx="180" cy="180" r="1.5" fill="#38bdf8" opacity="0.15" />
<circle cx="180" cy="200" r="1.5" fill="#38bdf8" opacity="0.15" />
<circle cx="180" cy="220" r="1.5" fill="#38bdf8" opacity="0.15" />
<circle cx="180" cy="240" r="1.5" fill="#38bdf8" opacity="0.15" />
<circle cx="180" cy="260" r="1.5" fill="#38bdf8" opacity="0.15" />
<circle cx="180" cy="280" r="1.5" fill="#38bdf8" opacity="0.15" />
<circle cx="180" cy="300" r="1.5" fill="#38bdf8" opacity="0.15" />
<circle cx="200" cy="160" r="1.5" fill="#38bdf8" opacity="0.15" />
<circle cx="200" cy="180" r="1.5" fill="#38bdf8" opacity="0.15" />
<circle cx="200" cy="200" r="1.5" fill="#38bdf8" opacity="0.15" />
<circle cx="200" cy="220" r="1.5" fill="#38bdf8" opacity="0.15" />
<circle cx="200" cy="240" r="1.5" fill="#38bdf8" opacity="0.15" />
<circle cx="200" cy="260" r="1.5" fill="#38bdf8" opacity="0.15" />
<circle cx="200" cy="280" r="1.5" fill="#38bdf8" opacity="0.15" />
<circle cx="200" cy="300" r="1.5" fill="#38bdf8" opacity="0.15" />
<circle cx="220" cy="160" r="1.5" fill="#38bdf8" opacity="0.15" />
<circle cx="220" cy="180" r="1.5" fill="#38bdf8" opacity="0.15" />
<circle cx="220" cy="200" r="1.5" fill="#38bdf8" opacity="0.15" />
<circle cx="220" cy="220" r="1.5" fill="#38bdf8" opacity="0.15" />
<circle cx="220" cy="240" r="1.5" fill="#38bdf8" opacity="0.15" />
<circle cx="220" cy="260" r="1.5" fill="#38bdf8" opacity="0.15" />
<circle cx="220" cy="280" r="1.5" fill="#38bdf8" opacity="0.15" />
<circle cx="220" cy="300" r="1.5" fill="#38bdf8" opacity="0.15" />

        <!-- Glassmorphism card backer -->
        <rect x="80" y="160" width="140" height="130" rx="10" fill="rgba(255,255,255,0.03)" stroke="rgba(56, 189, 248, 0.4)" stroke-width="1.5"/>
        <!-- Intersecting circles -->
        <circle cx="120" cy="200" r="30" fill="none" stroke="#38bdf8" stroke-width="1.5" opacity="0.7"/>
        <circle cx="180" cy="245" r="30" fill="none" stroke="#38bdf8" stroke-width="1.5" opacity="0.4"/>
        <line x1="120" y1="200" x2="180" y2="245" stroke="#38bdf8" stroke-width="1" stroke-dasharray="2,2" opacity="0.5"/>
        
    
    <!-- Inner Border Frame -->
    <rect x="15" y="15" width="270" height="420" rx="6" fill="none" stroke="rgba(255,255,255,0.08)" stroke-width="1.5" />
    
    <!-- Category (Top Header) -->
    <text x="150" y="60" fill="rgba(255,255,255,0.4)" font-family="system-ui, -apple-system, sans-serif" font-size="9" font-weight="700" letter-spacing="3" text-anchor="middle">TASARIM & TEKNOLOJI</text>
    
    <!-- Title Block -->
    <text x="150" y="225.0" text-anchor="middle" fill="#ffffff" font-family="system-ui, -apple-system, sans-serif" font-size="22px" font-weight="800" letter-spacing="-0.5px">
        <tspan x="150" dy="0">Kodun Estetiği</tspan>
    </text>
    
    <!-- Brand / Publisher Logo imprint -->
    <g transform="translate(150, 360)">
        <circle cx="0" cy="0" r="8" fill="none" stroke="rgba(255,255,255,0.2)" stroke-width="1"/>
        <text x="0" y="3" fill="rgba(255,255,255,0.3)" font-family="system-ui, -apple-system, sans-serif" font-size="8" font-weight="800" text-anchor="middle">T</text>
    </g>
    
    <!-- Author Name (Bottom) -->
    <text x="150" y="395" fill="rgba(255,255,255,0.7)" font-family="system-ui, -apple-system, sans-serif" font-size="12" font-weight="600" letter-spacing="0.5" text-anchor="middle">Kerem Deren</text>
</svg>