<svg xmlns="http://www.w3.org/2000/svg" viewBox="0 0 300 450" width="100%" height="100%">
    <defs>
        <linearGradient id="grad-16" x1="0%" y1="0%" x2="100%" y2="100%">
            <stop offset="0%" style="stop-color:#2a1f1f;stop-opacity:1" />
            <stop offset="100%" style="stop-color:#443434;stop-opacity:1" />
        </linearGradient>
        
        <!-- 3D Cylindrical Spine Shading overlay -->
        <linearGradient id="spine-shading" x1="0" y1="0" x2="1" y2="0">
            <stop offset="0%" stop-color="#000000" stop-opacity="0.6"/>
            <stop offset="2%" stop-color="#000000" stop-opacity="0.35"/>
            <stop offset="6%" stop-color="#ffffff" stop-opacity="0.12"/>
            <stop offset="10%" stop-color="#ffffff" stop-opacity="0.0"/>
            <stop offset="90%" stop-color="#000000" stop-opacity="0.0"/>
            <stop offset="97%" stop-color="#000000" stop-opacity="0.25"/>
            <stop offset="100%" stop-color="#000000" stop-opacity="0.55"/>
        </linearGradient>
        
        <!-- Tactile Paper Texture Filter -->
        <filter id="paper-texture" x="0%" y="0%" width="100%" height="100%">
            <feTurbulence type="fractalNoise" baseFrequency="0.05" numOctaves="4" result="noise" />
            <feColorMatrix type="matrix" values="1 0 0 0 0  0 1 0 0 0  0 0 1 0 0  0 0 0 0.08 0" in="noise" result="coloredNoise" />
            <feComposite operator="in" in2="SourceGraphic" result="composite" />
            <feBlend mode="multiply" in="SourceGraphic" in2="coloredNoise" />
        </filter>
    </defs>
    
    <!-- Render everything inside a group that has the paper-texture filter applied -->
    <g filter="url(#paper-texture)">
        <!-- Cover Background -->
        <rect width="300" height="450" fill="url(#grad-16)" />
        
        <!-- Realistic spine shadow & highlights -->
        <rect width="300" height="450" fill="url(#spine-shading)" />
        
        <!-- Vertical Book Joint line (Indentation fold) -->
        <line x1="20" y1="0" x2="20" y2="450" stroke="rgba(0,0,0,0.4)" stroke-width="1.5" />
        <line x1="21" y1="0" x2="21" y2="450" stroke="rgba(255,255,255,0.06)" stroke-width="1" />
        
        <!-- Spine 3D block highlights -->
        <rect x="0" y="0" width="20" height="450" fill="rgba(255,255,255,0.03)" />
        <line x1="0" y1="0" x2="0" y2="450" stroke="rgba(255,255,255,0.1)" stroke-width="1" />
        
        <!-- Graphic Illustration Art -->
        
        <!-- Soft Glowing Sunburst background -->
        <circle cx="150" cy="170" r="65" fill="url(#sun-grad)" opacity="0.45"/>
        <g stroke="#ffe4e6" stroke-width="0.5" opacity="0.25">
            <line x1="150" y1="170" x2="50" y2="70"/>
            <line x1="150" y1="170" x2="250" y2="70"/>
            <line x1="150" y1="170" x2="50" y2="270"/>
            <line x1="150" y1="170" x2="250" y2="270"/>
            <line x1="150" y1="170" x2="150" y2="50"/>
            <line x1="150" y1="170" x2="150" y2="290"/>
            <line x1="150" y1="170" x2="30" y2="170"/>
            <line x1="150" y1="170" x2="270" y2="170"/>
        </g>
        <!-- Wavy landscape paths -->
        <path d="M 15 280 Q 90 240 160 270 T 285 260 L 285 350 L 15 350 Z" fill="#443434" opacity="0.3"/>
        <path d="M 15 300 Q 100 270 170 300 T 285 285 L 285 350 L 15 350 Z" fill="#2a1f1f" opacity="0.5"/>
        <!-- Branch with detailed leaves -->
        <g stroke="#ffe4e6" fill="none" stroke-width="1.5" opacity="0.8">
            <!-- Main stem -->
            <path d="M 150 320 Q 135 240 170 180" />
            <!-- Leaves stems & Leaf paths -->
            <path d="M 143 280 Q 120 270 115 250" stroke-width="1"/>
            <path d="M 148 250 Q 175 240 180 220" stroke-width="1"/>
            <path d="M 155 220 Q 135 205 130 190" stroke-width="1"/>
            <!-- Detailed Leaf fills -->
            <path d="M 115 250 Q 105 230 118 220 Q 130 240 115 250 Z" fill="url(#leaf-grad)" stroke-width="1"/>
            <path d="M 180 220 Q 195 210 190 190 Q 170 200 180 220 Z" fill="url(#leaf-grad)" stroke-width="1"/>
            <path d="M 130 190 Q 120 170 132 160 Q 145 175 130 190 Z" fill="url(#leaf-grad)" stroke-width="1"/>
            <!-- Top leaf -->
            <path d="M 170 180 Q 185 160 178 145 Q 160 165 170 180 Z" fill="url(#leaf-grad)" stroke-width="1"/>
        </g>
        <path d="M 100 100 Q 104.0 96.0 108 100 Q 112.0 96.0 116 100 Q 108 102.0 100 100 Z" fill="#ffe4e6" opacity="0.65"/>
<path d="M 115 92 Q 118.0 89.0 121 92 Q 124.0 89.0 127 92 Q 121 93.5 115 92 Z" fill="#ffe4e6" opacity="0.65"/>
<path d="M 88 112 Q 90.5 109.5 93 112 Q 95.5 109.5 98 112 Q 93 113.25 88 112 Z" fill="#ffe4e6" opacity="0.65"/>
<path d="M 210 85 Q 213.5 81.5 217 85 Q 220.5 81.5 224 85 Q 217 86.75 210 85 Z" fill="#ffe4e6" opacity="0.65"/>
<path d="M 225 95 Q 227.5 92.5 230 95 Q 232.5 92.5 235 95 Q 230 96.25 225 95 Z" fill="#ffe4e6" opacity="0.65"/>

        <defs>
            <radialGradient id="sun-grad" cx="50%" cy="50%" r="50%">
                <stop offset="0%" stop-color="#fffbeb" stop-opacity="1"/>
                <stop offset="30%" stop-color="#fef3c7" stop-opacity="0.8"/>
                <stop offset="100%" stop-color="#2a1f1f" stop-opacity="0"/>
            </radialGradient>
            <linearGradient id="leaf-grad" x1="0" y1="1" x2="1" y2="0">
                <stop offset="0%" stop-color="#443434"/>
                <stop offset="100%" stop-color="#ffe4e6"/>
            </linearGradient>
        </defs>
        
        
        <!-- Inner Decorative Border Frame -->
        <rect x="15" y="15" width="270" height="420" rx="6" fill="none" stroke="rgba(255,255,255,0.08)" stroke-width="1.5" />
        
        <!-- Dynamic Text Backing Shield -->
        
    <!-- Title Backing Glass Shield -->
    <rect x="35" y="205.0" width="230" height="40" rx="10" fill="rgba(0,0,0,0.45)" stroke="rgba(255,255,255,0.08)" stroke-width="1.25" backdrop-filter="blur(5px)" />
    
        
        <!-- Category (Top Header) -->
        <text x="150" y="52" fill="rgba(255,255,255,0.45)" font-family="system-ui, -apple-system, sans-serif" font-size="8.5" font-weight="800" letter-spacing="3" text-anchor="middle">DOĞA & ŞIIR</text>
        
        <!-- Title Block -->
        <text x="150" y="225.0" text-anchor="middle" fill="#ffffff" font-family="Georgia, serif" font-size="20px" font-weight="600" letter-spacing="-0.5px" text-transform="none">
            <tspan x="150" dy="0">Toprağın Kokusu</tspan>
        </text>
        
        <!-- Brand / Publisher Logo Imprint -->
        <g transform="translate(150, 360)">
            <circle cx="0" cy="0" r="9" fill="none" stroke="rgba(255,255,255,0.25)" stroke-width="1.25"/>
            <text x="0" y="3" fill="rgba(255,255,255,0.4)" font-family="system-ui, -apple-system, sans-serif" font-size="9" font-weight="900" text-anchor="middle">T</text>
        </g>
        
        <!-- Author Name (Bottom) -->
        <text x="150" y="398" fill="rgba(255,255,255,0.75)" font-family="Georgia, serif" font-size="11.5" font-weight="600" letter-spacing="0.5" text-anchor="middle">Marcus Thorne</text>
    </g>
</svg>